<?xml version="1.0" encoding="iso-8859-1"?>
<!-- Generator: Adobe Illustrator 21.0.0, SVG Export Plug-In . SVG Version: 6.00 Build 0)  -->
<svg version="1.1" id="Capa_1" xmlns="http://www.w3.org/2000/svg" xmlns:xlink="http://www.w3.org/1999/xlink" x="0px" y="0px"
	 viewBox="0 0 486.038 486.038" style="enable-background:new 0 0 486.038 486.038;" xml:space="preserve">
<g>
	<g>
		<path d="M386.667,188.301c-16.188-6.093-33.341-9.221-50.637-9.232c-79.573,0.044-144.044,64.587-144,144.16
			c0.01,17.305,3.137,34.467,9.232,50.664l14.968-5.648c-24.884-66.097,8.527-139.852,74.624-164.736s139.852,8.527,164.736,74.624
			s-8.527,139.852-74.624,164.736c-29.042,10.934-61.069,10.934-90.112,0l-5.648,14.968c74.43,28.018,157.481-9.607,185.498-84.037
			C498.723,299.369,461.098,216.319,386.667,188.301z"/>
	</g>
</g>
<g>
	<g>
		<path d="M371.972,260.688c-34.446-19.866-78.475-8.046-98.341,26.4c-12.839,22.262-12.839,49.68,0,71.941l13.848-8
			c-15.442-26.797-6.237-61.039,20.561-76.48s61.039-6.237,76.48,20.561c15.442,26.797,6.237,61.039-20.56,76.48
			c-8.494,4.895-18.125,7.474-27.929,7.479c-9.828,0.003-19.485-2.58-28-7.488l-8,13.848c34.446,19.866,78.475,8.046,98.341-26.4
			C418.238,324.583,406.418,280.554,371.972,260.688z"/>
	</g>
</g>
<g>
	<g>
		<path d="M378.829,219.853c-57.058-23.715-122.536,3.315-146.251,60.373c-11.448,27.544-11.423,58.518,0.069,86.043l14.768-6.176
			c-20.368-48.889,2.752-105.032,51.641-125.4s105.032,2.753,125.4,51.641s-2.753,105.032-51.641,125.4
			c-23.584,9.826-50.114,9.834-73.704,0.023l-6.16,14.72c57.058,23.715,122.536-3.315,146.251-60.373
			C462.916,309.047,435.887,243.568,378.829,219.853z"/>
	</g>
</g>
<g>
	<g>
		<path d="M336.03,291.069c-17.673,0-32,14.327-32,32c0.028,5.695,1.595,11.276,4.536,16.152l-47.2,47.2l-35.736-7.192
			c-3.088-0.617-6.251,0.636-8.08,3.2l-40,56c-2.565,3.597-1.729,8.593,1.868,11.158c0.652,0.465,1.371,0.83,2.132,1.082l6.08,2.024
			c-20.807,9.456-43.393,14.357-66.248,14.376H24.03c-4.418,0-8-3.582-8-8s3.582-8,8-8h112c13.255,0,24-10.745,24-24
			s-10.745-24-24-24h-112c-4.418,0-8-3.582-8-8s3.582-8,8-8h56c23.906-0.026,44.149-17.639,47.48-41.312
			c9.826-3.205,16.487-12.352,16.52-22.688v-8c13.255,0,24-10.745,24-24v-58.088c60.741-26.51,88.492-97.241,61.982-157.982
			c-26.51-60.741-97.241-88.491-157.982-61.982s-88.491,97.241-61.982,157.982c12.106,27.737,34.245,49.876,61.982,61.982v58.088
			c0,13.255,10.745,24,24,24v8c0.026,9.898,6.126,18.765,15.36,22.328c-3.026,14.921-16.135,25.653-31.36,25.672h-56
			c-13.255,0-24,10.745-24,24s10.745,24,24,24h112c4.418,0,8,3.582,8,8s-3.582,8-8,8h-112c-13.255,0-24,10.745-24,24
			s10.745,24,24,24h97.352c28.612-0.021,56.79-7,82.104-20.336l4.952,14.864c1.089,3.268,4.147,5.473,7.592,5.472
			c1.668,0.004,3.295-0.52,4.648-1.496l56-40c2.561-1.827,3.813-4.986,3.2-8.072l-7.16-35.8l47.2-47.2
			c4.862,2.945,10.428,4.523,16.112,4.568c17.673,0,32-14.327,32-32C368.03,305.396,353.704,291.069,336.03,291.069z
			 M128.03,323.069c0,4.418-3.582,8-8,8s-8-3.582-8-8v-8h16V323.069z M152.03,275.069h-64v-8h64V275.069z M152.03,251.069h-64
			v-12.464c10.415,2.931,21.18,4.433,32,4.464c10.82-0.031,21.585-1.533,32-4.464V251.069z M114.702,171.069h10.632l-4.664,56
			c-0.216,0-0.424,0-0.64,0s-0.424,0-0.64,0L114.702,171.069z M16.03,123.069C15.963,65.632,62.471,19.015,119.908,18.947
			c57.438-0.067,104.055,46.44,104.122,103.878c0.06,50.999-36.87,94.518-87.2,102.756l4.544-54.512h18.656
			c17.673-0.004,31.997-14.334,31.993-32.007c-0.004-17.673-14.334-31.997-32.007-31.993c-17.412,0.004-31.625,13.928-31.986,31.336
			l-1.36,16.664h-13.304l-1.336-16c0-17.673-14.327-32-32-32s-32,14.327-32,32s14.327,32,32,32h18.64l4.544,54.512
			C52.998,217.323,16.119,173.96,16.03,123.069z M142.702,155.069l1.328-16c0-8.837,7.163-16,16-16s16,7.163,16,16s-7.163,16-16,16
			H142.702z M97.334,155.069H80.03c-8.837,0-16-7.163-16-16s7.163-16,16-16c8.951,0.111,16.117,7.458,16.005,16.408
			c-0.001,0.085-0.003,0.171-0.005,0.256L97.334,155.069z M96.03,299.069c-4.418,0-8-3.582-8-8h64c0,4.418-3.582,8-8,8H96.03z
			 M205.87,441.917l-9.04-3.016l30.704-42.976l20.272,4.056L205.87,441.917z M220.198,462.269l-3.016-9.032l41.936-41.928
			l4.048,20.256L220.198,462.269z M336.03,339.069c-1.383-0.019-2.758-0.221-4.088-0.6l9.744-9.744l-11.312-11.312l-9.744,9.744
			c-0.379-1.33-0.581-2.705-0.6-4.088c0-8.837,7.163-16,16-16s16,7.163,16,16S344.867,339.069,336.03,339.069z"/>
	</g>
</g>
<g>
	<g>
		<path d="M295.526,127.253c0.336-4.304,0.504-8.288,0.504-12.184c0.073-35.972-10.945-71.092-31.552-100.576l-13.12,9.152
			c23.129,32.782,32.817,73.181,27.072,112.888c-0.357,2.646,0.631,5.296,2.632,7.064c2.007,1.769,4.767,2.418,7.352,1.728
			c47.149-12.441,97.3-5.831,139.616,18.4l8-13.856C393.506,125.49,343.553,117.45,295.526,127.253z"/>
	</g>
</g>
<g>
	<g>
		<path d="M468.318,173.069l-10.584,12c5.769,5.089,11.215,10.535,16.304,16.304l12-10.6
			C480.501,184.513,474.584,178.601,468.318,173.069z"/>
	</g>
</g>
<g>
</g>
<g>
</g>
<g>
</g>
<g>
</g>
<g>
</g>
<g>
</g>
<g>
</g>
<g>
</g>
<g>
</g>
<g>
</g>
<g>
</g>
<g>
</g>
<g>
</g>
<g>
</g>
<g>
</g>
</svg>
