<?xml version="1.0" encoding="iso-8859-1"?>
<!-- Generator: Adobe Illustrator 21.0.0, SVG Export Plug-In . SVG Version: 6.00 Build 0)  -->
<svg version="1.1" id="Capa_1" xmlns="http://www.w3.org/2000/svg" xmlns:xlink="http://www.w3.org/1999/xlink" x="0px" y="0px"
	 viewBox="0 0 480 480" style="enable-background:new 0 0 480 480;" xml:space="preserve">
<g>
	<g>
		<path d="M440,12H40C17.92,12.026,0.026,29.92,0,52v272c0.026,22.08,17.92,39.974,40,40h288v-16H40c-13.255,0-24-10.745-24-24V52
			c0-13.255,10.745-24,24-24h400c13.255,0,24,10.745,24,24v272c0,13.255-10.745,24-24,24h-64v16h64c22.08-0.026,39.974-17.92,40-40
			V52C479.974,29.92,462.08,12.026,440,12z"/>
	</g>
</g>
<g>
	<g>
		<path d="M408,44H40c-4.418,0-8,3.582-8,8v272c0,4.418,3.582,8,8,8h288v-16H48V60h352v256h-24v16h32c4.418,0,8-3.582,8-8V52
			C416,47.582,412.418,44,408,44z"/>
	</g>
</g>
<g>
	<g>
		<rect x="432" y="148" width="16" height="80"/>
	</g>
</g>
<g>
	<g>
		<path d="M456,420H88c-1.238-0.014-2.462,0.26-3.576,0.8l-32,16c-3.954,1.971-5.562,6.774-3.591,10.729
			c0.775,1.555,2.036,2.816,3.591,3.591l32,16c1.107,0.567,2.332,0.869,3.576,0.88h368c13.255,0,24-10.745,24-24
			S469.255,420,456,420z M408,452H89.888l-16-8l16-8H408V452z M456,452h-32v-16h32c4.418,0,8,3.582,8,8S460.418,452,456,452z"/>
	</g>
</g>
<g>
	<g>
		<path d="M368,220h-24v-24c0-4.418-3.582-8-8-8h-72v-8c0-4.418-3.582-8-8-8h-24v-24c0-4.418-3.582-8-8-8h-48v-16h32
			c4.418,0,8-3.582,8-8V84c0-4.418-3.582-8-8-8h-80c-4.418,0-8,3.582-8,8v32c0,4.418,3.582,8,8,8h32v16h-56c-4.418,0-8,3.582-8,8v24
			H72c-4.418,0-8,3.582-8,8v32c0,4.418,3.582,8,8,8h64c4.418,0,8-3.582,8-8v-32c0-4.418-3.582-8-8-8h-24v-16h104v16h-24
			c-4.418,0-8,3.582-8,8v32c0,4.418,3.582,8,8,8h24v24h-24c-4.418,0-8,3.582-8,8v32c0,4.418,3.582,8,8,8h64c4.418,0,8-3.582,8-8v-32
			c0-4.418-3.582-8-8-8h-24v-24h24c4.418,0,8-3.582,8-8v-8h64v16h-24c-4.418,0-8,3.582-8,8v32c0,4.418,3.582,8,8,8h64
			c4.418,0,8-3.582,8-8v-32C376,223.582,372.418,220,368,220z M128,188v16H80v-16H128z M136,108V92h64v16H136z M248,260v16h-48v-16
			H248z M248,204h-48v-16h48V204z M360,252h-48v-16h48V252z"/>
	</g>
</g>
<g>
	<g>
		<path d="M0,436v8c0,4.418,3.582,8,8,8h8v-16H0z"/>
	</g>
</g>
<g>
	<g>
		<path d="M339.16,364.952c-2.232,3.564-5.144,6.655-8.568,9.096l9.312,13.016c5.116-3.652,9.465-8.272,12.8-13.6L339.16,364.952z"
			/>
	</g>
</g>
<g>
	<g>
		<path d="M344,339.128V348c0,1.812-0.153,3.621-0.456,5.408l15.784,2.648c0.447-2.662,0.672-5.357,0.672-8.056v-8.872H344z"/>
	</g>
</g>
<g>
	<g>
		<rect x="274.24" y="380" width="15.632" height="16"/>
	</g>
</g>
<g>
	<g>
		<path d="M319.288,379.2c-2.391,0.544-4.836,0.812-7.288,0.8h-6.456v16H312c3.673,0.004,7.335-0.415,10.912-1.248L319.288,379.2z"
			/>
	</g>
</g>
<g>
	<g>
		<path d="M38.136,381.008c-6.146,1.287-11.978,3.774-17.16,7.32l9.016,13.216c3.448-2.364,7.331-4.02,11.424-4.872L38.136,381.008z
			"/>
	</g>
</g>
<g>
	<g>
		<path d="M7.912,401.6c-3.467,5.239-5.865,11.112-7.056,17.28l15.72,3.024c0.781-4.107,2.372-8.018,4.68-11.504L7.912,401.6z"/>
	</g>
</g>
<g>
	<g>
		<rect x="211.72" y="380" width="15.64" height="16"/>
	</g>
</g>
<g>
	<g>
		<rect x="243" y="380" width="15.632" height="16"/>
	</g>
</g>
<g>
	<g>
		<rect x="117.896" y="380" width="15.64" height="16"/>
	</g>
</g>
<g>
	<g>
		<rect x="86.624" y="380" width="15.64" height="16"/>
	</g>
</g>
<g>
	<g>
		<rect x="344" y="307.848" width="16" height="15.64"/>
	</g>
</g>
<g>
	<g>
		<rect x="55.352" y="380" width="15.632" height="16"/>
	</g>
</g>
<g>
	<g>
		<rect x="149.168" y="380" width="15.64" height="16"/>
	</g>
</g>
<g>
	<g>
		<rect x="180.448" y="380" width="15.64" height="16"/>
	</g>
</g>
<g>
	<g>
		<rect x="344" y="276" width="16" height="16"/>
	</g>
</g>
<g>
</g>
<g>
</g>
<g>
</g>
<g>
</g>
<g>
</g>
<g>
</g>
<g>
</g>
<g>
</g>
<g>
</g>
<g>
</g>
<g>
</g>
<g>
</g>
<g>
</g>
<g>
</g>
<g>
</g>
</svg>
