<?xml version="1.0" encoding="iso-8859-1"?>
<!-- Generator: Adobe Illustrator 21.0.0, SVG Export Plug-In . SVG Version: 6.00 Build 0)  -->
<svg version="1.1" id="Capa_1" xmlns="http://www.w3.org/2000/svg" xmlns:xlink="http://www.w3.org/1999/xlink" x="0px" y="0px"
	 viewBox="0 0 480.318 480.318" style="enable-background:new 0 0 480.318 480.318;" xml:space="preserve">
<g>
	<g>
		<path d="M152.159,272.318c-12.8,0-23.2-9.6-24-22.4c30.4-12.8,48.8-43.2,48-76c0-1.6,0-4.8,0-5.6c0-40-32-72-72-72h-96
			c-4.8,0-8,3.2-8,8c0,18.4,7.2,36,19.2,48.8c-1.6,8-3.2,15.2-3.2,23.2c0,32,19.2,60.8,48,73.6c-0.8,12.8-11.2,22.4-24,22.4
			c-22.4,0-40,17.6-40,40v160c0,4.8,3.2,8,8,8h176c4.8,0,8-3.2,8-8v-160C192.159,289.918,174.559,272.318,152.159,272.318z
			 M16.959,112.318h87.2c28,0,51.2,20.8,55.2,48h-87.2C44.159,160.318,20.959,139.518,16.959,112.318z M32.159,176.318
			c0-4,0-8,0.8-11.2c12,7.2,25.6,11.2,39.2,11.2h88c0,27.2-16.8,51.2-42.4,60c-3.2,0.8-5.6,4-5.6,7.2v4.8c0,10.4,4,20.8,12,28.8
			l-20.8,3.2h-14.4l-20.8-3.2c8-7.2,12-17.6,12-28.8v-4c0-3.2-2.4-6.4-5.6-7.2C48.959,227.518,32.159,203.518,32.159,176.318z
			 M112.159,389.918l-16,15.2l-15.2-15.2l14.4-93.6h2.4L112.159,389.918z M16.159,312.318c0-12.8,10.4-24,23.2-24l39.2,6.4l-15.2,96
			c0,2.4,0.8,4.8,2.4,7.2l24,24c3.2,3.2,8,3.2,11.2,0l24-24c1.6-1.6,2.4-4,2.4-7.2l-15.2-96l39.2-6.4c12.8,0,23.2,11.2,23.2,24v120
			h-158.4V312.318z M176.159,464.318h-160v-16h160V464.318z"/>
	</g>
</g>
<g>
	<g>
		<path d="M448.159,64.318h-36l-8.8-13.6c-4-6.4-12-10.4-20-10.4h-17.6c-4,0-7.2-2.4-8-6.4c-8-25.6-34.4-39.2-60-32
			c-15.2,4.8-27.2,16.8-32,32c-0.8,3.2-4,6.4-8,6.4h-17.6c-8,0-15.2,4-20,10.4l-8,13.6h-36c-17.6,0-32,14.4-32,32h16
			c0-8.8,7.2-16,16-16h25.6c-4.8,7.2-1.6,17.6,5.6,21.6c2.4,1.6,5.6,2.4,8,2.4h194.4c8.8,0,16-7.2,16-16c0-3.2-0.8-5.6-2.4-8h24.8
			c8.8,0,16,7.2,16,16v352c0,8.8-7.2,16-16,16h-240v16h240c17.6,0,32-14.4,32-32v-352C480.159,78.718,465.759,64.318,448.159,64.318
			z M215.359,88.318l18.4-28.8c1.6-1.6,4-3.2,7.2-3.2h17.6c10.4,0,20-7.2,23.2-17.6c5.6-16.8,23.2-26.4,40-20.8
			c10.4,3.2,17.6,11.2,20.8,20.8c3.2,10.4,12.8,17.6,23.2,17.6h17.6c2.4,0,4.8,1.6,6.4,3.2l19.2,28.8H215.359z"/>
	</g>
</g>
<g>
	<g>
		<rect x="304.159" y="32.318" width="16" height="16"/>
	</g>
</g>
<g>
	<g>
		<polygon points="277.759,197.918 266.559,186.718 248.159,205.118 229.759,186.718 218.559,197.918 236.959,216.318 
			218.559,234.718 229.759,245.918 248.159,227.518 266.559,245.918 277.759,234.718 259.359,216.318 		"/>
	</g>
</g>
<g>
	<g>
		<polygon points="365.759,357.918 354.559,346.718 336.159,365.118 317.759,346.718 306.559,357.918 324.959,376.318 
			306.559,394.718 317.759,405.918 336.159,387.518 354.559,405.918 365.759,394.718 347.359,376.318 		"/>
	</g>
</g>
<g>
	<g>
		<path d="M373.759,226.718c-3.2-3.2-8-3.2-11.2,0l-32,32l11.2,11.2l18.4-18.4v16.8c0,20-16,36-36,36c-28.8,0-52,23.2-52,52v8
			c0,20-16,36-36,36h-20v16h20c28.8,0,52-23.2,52-52v-8c0-20,16-36,36-36c28.8,0,52-23.2,52-52v-16.8l18.4,18.4l11.2-11.2
			L373.759,226.718z"/>
	</g>
</g>
<g>
	<g>
		<path d="M421.759,134.718l-11.2-12l-10.4,10.4c-19.2-17.6-49.6-16-67.2,4c-17.6,20-16,49.6,4,67.2c20,17.6,49.6,16,67.2-4
			c13.6-15.2,16-36.8,6.4-54.4L421.759,134.718z M368.159,200.318c-17.6,0-32-14.4-32-32c0-17.6,14.4-32,32-32c8,0,15.2,3.2,20.8,8
			l-20.8,20.8l-10.4-10.4l-11.2,11.2l16,16c3.2,3.2,8,3.2,11.2,0l24-24c1.6,3.2,2.4,6.4,2.4,10.4
			C400.159,185.918,385.759,200.318,368.159,200.318z"/>
	</g>
</g>
<g>
	<g>
		<rect x="128.159" y="328.318" width="24" height="16"/>
	</g>
</g>
<g>
	<g>
		<path d="M432.159,104.318v328h-224v16h232c4.8,0,8-3.2,8-8v-336H432.159z"/>
	</g>
</g>
<g>
</g>
<g>
</g>
<g>
</g>
<g>
</g>
<g>
</g>
<g>
</g>
<g>
</g>
<g>
</g>
<g>
</g>
<g>
</g>
<g>
</g>
<g>
</g>
<g>
</g>
<g>
</g>
<g>
</g>
</svg>
