<?xml version="1.0" encoding="iso-8859-1"?>
<!-- Generator: Adobe Illustrator 21.0.0, SVG Export Plug-In . SVG Version: 6.00 Build 0)  -->
<svg version="1.1" id="Capa_1" xmlns="http://www.w3.org/2000/svg" xmlns:xlink="http://www.w3.org/1999/xlink" x="0px" y="0px"
	 viewBox="0 0 480.049 480.049" style="enable-background:new 0 0 480.049 480.049;" xml:space="preserve">
<g>
	<g>
		<path d="M448.027,160.049h-104c-4.418,0-8,3.582-8,8v32c0,4.418,3.582,8,8,8h24c8.837,0,16,7.163,16,16s-7.163,16-16,16h-24
			c-4.418,0-8,3.582-8,8v40h-120c-4.418,0-8,3.582-8,8v104c0,17.673,14.327,32,32,32h208c17.673,0,32-14.327,32-32v-208
			C480.027,174.376,465.7,160.049,448.027,160.049z M336.027,416.049h-96c-8.837,0-16-7.163-16-16v-96h112v16h-16
			c-17.673,0-32,14.327-32,32c0,17.673,14.327,32,32,32h16V416.049z M464.027,400.049c0,8.837-7.163,16-16,16h-96v-40
			c0-4.418-3.582-8-8-8h-24c-8.837,0-16-7.163-16-16s7.163-16,16-16h24c4.418,0,8-3.582,8-8v-24h24v16c0,17.673,14.327,32,32,32
			c17.673,0,32-14.327,32-32v-16h24V400.049z M464.027,288.049h-32c-4.418,0-8,3.582-8,8v24c0,8.837-7.163,16-16,16s-16-7.163-16-16
			v-24c0-4.418-3.582-8-8-8h-32v-32h16c17.673,0,32-14.327,32-32s-14.327-32-32-32h-16v-16h96c8.837,0,16,7.163,16,16V288.049z"/>
	</g>
</g>
<g>
	<g>
		<path d="M352.027,32.049h-16v-24c0-4.418-3.582-8-8-8h-104c-17.673,0-32,14.327-32,32v89.6l-33.096,16
			c-4.977-6.574-11.155-12.145-18.208-16.416c31.601-15.834,44.383-54.288,28.549-85.889C153.438,3.743,114.984-9.039,83.383,6.795
			C51.782,22.629,39,61.083,54.834,92.684c5.46,10.896,13.917,20.007,24.377,26.261c-16.745,8.166-29.112,23.208-33.888,41.216
			l-31.872,100.36c-9.017,28.347-7.183,59.032,5.144,86.104c13.074,28.616,12.462,61.617-1.664,89.728l-16.064,32.12
			c-1.975,3.952-0.372,8.757,3.58,10.732c1.112,0.555,2.337,0.844,3.58,0.844h88c4.418,0,8-3.582,8-8
			c0.024-14.848-8.225-28.473-21.392-35.336l3.824-7.632c11.58-23.28,15.348-49.673,10.744-75.264l-5.936-32.64
			c-0.76-4.213,2.04-8.245,6.253-9.005c0.45-0.081,0.906-0.122,1.363-0.123c3.744-0.004,6.956,2.669,7.632,6.352l10.864,59.776
			c1.761,9.709,2.648,19.557,2.648,29.424v64.448c0,4.418,3.582,8,8,8h88c4.418,0,8-3.582,8-8c0-1.556-0.091-3.111-0.272-4.656
			c-1.376-12.041-8.812-22.543-19.712-27.84c-8.924-4.548-19.262-5.465-28.848-2.56l5.328-26.624
			c2.328-11.656,3.501-23.514,3.504-35.4v-71.608l-9.344-107.128l55.512-26.488c10.258-4.562,17.095-14.486,17.704-25.696h80.128
			c4.418,0,8-3.582,8-8v-40h16c17.673,0,32-14.327,32-32S369.7,32.049,352.027,32.049z M64.027,64.049c0-26.51,21.49-48,48-48
			c26.51,0,48,21.49,48,48s-21.49,48-48,48C85.529,112.023,64.054,90.548,64.027,64.049z M175.187,454.305
			c6.662-3.781,14.779-3.958,21.6-0.472c4.371,2.118,7.826,5.747,9.728,10.216h-70.488v-56.448
			c-0.001-10.828-0.975-21.634-2.912-32.288l-10.864-59.768c-2.234-12.922-14.521-21.586-27.442-19.351
			c-12.922,2.234-21.586,14.521-19.351,27.442c0.023,0.135,0.048,0.27,0.074,0.405l5.944,32.64
			c3.983,22.184,0.712,45.061-9.328,65.24l-7.768,15.528c-2.002,3.939-0.432,8.755,3.507,10.757
			c0.553,0.281,1.138,0.497,1.741,0.643c7.882,1.857,14.289,7.577,17.024,15.2h-65.68l10.256-20.544
			c16.291-32.428,16.997-70.494,1.92-103.504c-10.69-23.466-12.281-50.067-4.464-74.64l32-100.8
			c6.64-24.877,31.351-40.414,56.648-35.616c10.455,2.094,19.892,7.666,26.776,15.808l-47.28,22.84
			c-10.239,4.981-16.755,15.35-16.8,26.736c-0.04,16.374,13.201,29.681,29.575,29.721c4.467,0.011,8.878-0.987,12.905-2.921
			l36.8-17.544l8.72,100.464v70.92c-0.009,10.831-1.081,21.635-3.2,32.256l-8.528,42.608c-0.87,4.332,1.935,8.549,6.267,9.419
			c1.898,0.381,3.869,0.062,5.549-0.899L175.187,454.305z M223.651,155.153l-0.24,0.104l-107.8,51.432
			c-6.829,3.252-15.002,0.352-18.254-6.478c-0.875-1.838-1.329-3.847-1.33-5.882c0.02-5.247,3.02-10.027,7.736-12.328l108.664-52.48
			c4.321-1.929,9.329-1.513,13.272,1.104c3.982,2.557,6.372,6.98,6.328,11.712C232.025,147.893,228.739,152.921,223.651,155.153z
			 M352.027,80.049h-24c-4.418,0-8,3.582-8,8v40h-75.608c-7.031-12.987-22.492-18.894-36.392-13.904V32.049c0-8.837,7.163-16,16-16
			h96v24c0,4.418,3.582,8,8,8h24c8.837,0,16,7.163,16,16S360.864,80.049,352.027,80.049z"/>
	</g>
</g>
<g>
	<g>
		<path d="M322.371,210.393l-26.344,26.344v-44.688h-16v60.688l-8,8l-8-8v-28.688h-16v12.688l-26.344-26.344l-11.312,11.312l56,56
			c3.124,3.123,8.188,3.123,11.312,0l56-56L322.371,210.393z"/>
	</g>
</g>
<g>
	<g>
		<rect x="248.027" y="192.049" width="16" height="16"/>
	</g>
</g>
<g>
	<g>
		<rect x="248.027" y="160.049" width="16" height="16"/>
	</g>
</g>
<g>
	<g>
		<rect x="280.027" y="160.049" width="16" height="16"/>
	</g>
</g>
<g>
</g>
<g>
</g>
<g>
</g>
<g>
</g>
<g>
</g>
<g>
</g>
<g>
</g>
<g>
</g>
<g>
</g>
<g>
</g>
<g>
</g>
<g>
</g>
<g>
</g>
<g>
</g>
<g>
</g>
</svg>
