<?xml version="1.0" encoding="iso-8859-1"?>
<!-- Generator: Adobe Illustrator 21.0.0, SVG Export Plug-In . SVG Version: 6.00 Build 0)  -->
<svg version="1.1" id="Capa_1" xmlns="http://www.w3.org/2000/svg" xmlns:xlink="http://www.w3.org/1999/xlink" x="0px" y="0px"
	 viewBox="0 0 488.002 488.002" style="enable-background:new 0 0 488.002 488.002;" xml:space="preserve">
<g>
	<g>
		<path d="M275.841,454.402l-16-80c-0.76-3.725-4.038-6.401-7.84-6.4h-16c-3.802-0.001-7.08,2.675-7.84,6.4l-16,80
			c-0.516,2.614,0.302,5.313,2.184,7.2l24,24c3.124,3.123,8.188,3.123,11.312,0l24-24
			C275.539,459.716,276.358,457.016,275.841,454.402z M244.001,468.69l-15.32-15.32l13.88-69.368h2.88l13.88,69.368L244.001,468.69z
			"/>
	</g>
</g>
<g>
	<g>
		<path d="M444.001,360.002c-12.748-0.047-23.234-10.053-23.88-22.784c40.463-17.689,58.925-64.831,41.235-105.294
			S396.525,173,356.062,190.689c-17.556,7.675-31.772,21.399-40.061,38.673c-19.035-39.764-66.701-56.569-106.466-37.534
			c-16.427,7.863-29.671,21.108-37.534,37.534c-19.122-39.796-66.884-56.556-106.681-37.434
			C25.524,211.05,8.764,258.813,27.886,298.609c8.284,17.24,22.474,30.938,39.995,38.609c-0.646,12.731-11.132,22.737-23.88,22.784
			c-22.08,0.026-39.974,17.92-40,40v88h16v-88c0-13.255,10.745-24,24-24c19.638-0.05,36.328-14.366,39.368-33.768
			c10.836,2.322,22.037,2.357,32.888,0.104c0.192,8.965,3.953,17.482,10.448,23.664l10.592-12
			c-4.077-4.569-5.987-10.674-5.24-16.752c17.478-7.716,31.638-21.402,39.944-38.608c8.296,17.183,22.431,30.856,39.88,38.576
			c-0.646,12.731-11.132,22.737-23.88,22.784c-22.08,0.026-39.974,17.92-40,40v88h16v-88c0-13.255,10.745-24,24-24
			c19.638-0.05,36.328-14.366,39.368-33.768c10.963,2.357,22.301,2.357,33.264,0c3.04,19.402,19.729,33.718,39.368,33.768
			c13.255,0,24,10.745,24,24v88h16v-88c-0.026-22.08-17.92-39.974-40-40c-12.748-0.047-23.234-10.053-23.88-22.784
			c17.449-7.72,31.584-21.393,39.88-38.576c8.296,17.187,22.435,30.863,39.888,38.584c-0.185,6.283-2.238,12.368-5.896,17.48
			l12,10.576c5.271-6.624,8.563-14.602,9.496-23.016c10.924,2.336,22.219,2.336,33.144,0c3.054,19.389,19.74,33.688,39.368,33.736
			c13.255,0,24,10.745,24,24v88h16v-88C483.975,377.922,466.082,360.029,444.001,360.002z M100.001,328.002
			c-32.223-0.054-59.392-24.033-63.448-56h23.448c2.124,0.002,4.162-0.842,5.664-2.344l11.912-11.92l26.848,13.464
			c1.114,0.54,2.338,0.814,3.576,0.8h55.448C159.393,303.969,132.224,327.949,100.001,328.002z M109.889,256.002l-30.32-15.16
			c-3.08-1.537-6.799-0.932-9.232,1.504l-13.656,13.656H36.553c4.056-31.967,31.225-55.946,63.448-56
			c32.223,0.054,59.392,24.033,63.448,56H109.889z M244.001,328.002c-32.223-0.054-59.392-24.033-63.448-56h23.448
			c1.58-0.003,3.124-0.47,4.44-1.344l19.56-13.056l19.56,13.04c1.314,0.88,2.859,1.353,4.44,1.36h55.448
			C303.393,303.969,276.224,327.949,244.001,328.002z M254.401,256.002l-21.984-14.656c-2.688-1.794-6.192-1.794-8.88,0
			l-21.936,14.656h-21.048c4.056-31.967,31.225-55.946,63.448-56c32.223,0.054,59.392,24.033,63.448,56H254.401z M388.001,200.002
			c32.223,0.054,59.392,24.033,63.448,56h-11.2l-13.6-20.44c-1.483-2.222-3.977-3.558-6.648-3.56h-64
			c-2.674,0-5.172,1.335-6.656,3.56l-13.624,20.44h-11.2C328.579,224.023,355.766,200.04,388.001,200.002z M380.052,327.501
			c-29.013-3.635-51.864-26.486-55.499-55.499h15.448c2.674,0,5.172-1.335,6.656-3.56l13.624-20.44h55.44l13.6,20.44
			c1.489,2.232,3.997,3.568,6.68,3.56h15.448C447.059,307.044,415.094,331.891,380.052,327.501z"/>
	</g>
</g>
<g>
	<g>
		<path d="M300.001,121.602v-49.6h40c4.418-0.015,7.987-3.61,7.972-8.028c-0.01-2.837-1.521-5.456-3.972-6.884l-96-56
			c-2.491-1.454-5.573-1.454-8.064,0l-96,56c-3.817,2.224-5.109,7.122-2.884,10.94c1.44,2.471,4.089,3.985,6.948,3.972h40v49.6
			l-97.8,22.6l3.6,15.6l104-24c3.631-0.839,6.202-4.073,6.2-7.8v-64c0-4.418-3.582-8-8-8h-18.4l66.4-38.744l66.4,38.744h-18.4
			c-4.418,0-8,3.582-8,8v64c-0.002,3.727,2.569,6.961,6.2,7.8l104,24l3.6-15.6L300.001,121.602z"/>
	</g>
</g>
<g>
	<g>
		<path d="M236.001,56.002v90.232l-18.528,6.184l5.056,15.2l24-8c3.277-1.091,5.483-4.162,5.472-7.616v-96H236.001z"/>
	</g>
</g>
<g>
	<g>
		
			<rect x="171.353" y="164.003" transform="matrix(0.9486 -0.3165 0.3165 0.9486 -44.9821 67.0859)" width="25.296" height="15.992"/>
	</g>
</g>
<g>
	<g>
		<rect x="295.999" y="138.876" transform="matrix(0.2747 -0.9615 0.9615 0.2747 58.9554 414.1495)" width="16" height="58.24"/>
	</g>
</g>
<g>
	<g>
		<path d="M131.841,454.402l-16-80c-0.76-3.725-4.038-6.401-7.84-6.4h-16c-3.802-0.001-7.08,2.675-7.84,6.4l-16,80
			c-0.516,2.614,0.302,5.313,2.184,7.2l24,24c3.124,3.123,8.188,3.123,11.312,0l24-24
			C131.539,459.716,132.358,457.016,131.841,454.402z M100.001,468.69l-15.32-15.32l13.88-69.368h2.88l13.88,69.368L100.001,468.69z
			"/>
	</g>
</g>
<g>
	<g>
		<path d="M419.841,454.402l-16-80c-0.76-3.725-4.038-6.401-7.84-6.4h-16c-3.802-0.001-7.08,2.675-7.84,6.4l-16,80
			c-0.516,2.614,0.302,5.313,2.184,7.2l24,24c3.124,3.123,8.188,3.123,11.312,0l24-24
			C419.539,459.716,420.358,457.016,419.841,454.402z M388.001,468.69l-15.32-15.32l13.88-69.368h2.88l13.88,69.368L388.001,468.69z
			"/>
	</g>
</g>
<g>
</g>
<g>
</g>
<g>
</g>
<g>
</g>
<g>
</g>
<g>
</g>
<g>
</g>
<g>
</g>
<g>
</g>
<g>
</g>
<g>
</g>
<g>
</g>
<g>
</g>
<g>
</g>
<g>
</g>
</svg>
